<mxfile host="Electron" modified="2023-08-30T08:17:51.550Z" agent="Mozilla/5.0 (Windows NT 10.0; Win64; x64) AppleWebKit/537.36 (KHTML, like Gecko) draw.io/21.6.8 Chrome/114.0.5735.289 Electron/25.5.0 Safari/537.36" etag="N0_Tc-jSiSVlWaLE8C_-" version="21.6.8" type="device">
  <diagram name="Page-1" id="_q3OPos_iI0i5HqjVwgk">
    <mxGraphModel dx="1264" dy="516" grid="0" gridSize="10" guides="1" tooltips="1" connect="1" arrows="1" fold="1" page="0" pageScale="1" pageWidth="850" pageHeight="1100" background="#8aa216" math="0" shadow="0">
      <root>
        <mxCell id="0" />
        <mxCell id="1" parent="0" />
        <mxCell id="GPNybGSvxElLRLeVUes3-1" value="CEO(Chief Executive Officer)" style="swimlane;childLayout=stackLayout;horizontal=1;startSize=50;horizontalStack=0;rounded=1;fontSize=14;fontStyle=0;strokeWidth=2;resizeParent=0;resizeLast=1;shadow=0;dashed=0;align=center;arcSize=4;whiteSpace=wrap;html=1;" parent="1" vertex="1">
          <mxGeometry x="291" y="262.5" width="148" height="139" as="geometry" />
        </mxCell>
        <mxCell id="GPNybGSvxElLRLeVUes3-2" value="&lt;font color=&quot;#080707&quot;&gt;+Name&lt;br&gt;+CEO Work ID&lt;br&gt;+Phone Number&lt;br&gt;+Email&lt;br&gt;+Role&lt;br&gt;&lt;/font&gt;" style="align=left;strokeColor=#006EAF;fillColor=#f0f3f4;spacingLeft=4;fontSize=12;verticalAlign=top;resizable=0;rotatable=0;part=1;html=1;fontColor=#ffffff;" parent="GPNybGSvxElLRLeVUes3-1" vertex="1">
          <mxGeometry y="50" width="148" height="89" as="geometry" />
        </mxCell>
        <mxCell id="GPNybGSvxElLRLeVUes3-5" value="EMPLOYEE" style="swimlane;childLayout=stackLayout;horizontal=1;startSize=50;horizontalStack=0;rounded=1;fontSize=14;fontStyle=0;strokeWidth=2;resizeParent=0;resizeLast=1;shadow=0;dashed=0;align=center;arcSize=4;whiteSpace=wrap;html=1;" parent="1" vertex="1">
          <mxGeometry x="674" y="257" width="114" height="150" as="geometry" />
        </mxCell>
        <mxCell id="GPNybGSvxElLRLeVUes3-6" value="&lt;font color=&quot;#000000&quot;&gt;+Name&lt;br&gt;+HR Work&amp;nbsp; ID&lt;br&gt;+Phone Number&lt;br&gt;+Email&lt;br&gt;+Salary&lt;/font&gt;" style="align=left;strokeColor=none;fillColor=#fcfcfc;spacingLeft=4;fontSize=12;verticalAlign=top;resizable=0;rotatable=0;part=1;html=1;" parent="GPNybGSvxElLRLeVUes3-5" vertex="1">
          <mxGeometry y="50" width="114" height="100" as="geometry" />
        </mxCell>
        <mxCell id="dXchG4zYQPLnqejBYTC1-58" style="edgeStyle=orthogonalEdgeStyle;rounded=0;orthogonalLoop=1;jettySize=auto;html=1;entryX=0.056;entryY=0.667;entryDx=0;entryDy=0;entryPerimeter=0;" edge="1" parent="1" source="GPNybGSvxElLRLeVUes3-8" target="dXchG4zYQPLnqejBYTC1-53">
          <mxGeometry relative="1" as="geometry" />
        </mxCell>
        <mxCell id="GPNybGSvxElLRLeVUes3-8" value="SHAREHOLDERS" style="swimlane;childLayout=stackLayout;horizontal=1;startSize=50;horizontalStack=0;rounded=1;fontSize=14;fontStyle=0;strokeWidth=2;resizeParent=0;resizeLast=1;shadow=0;dashed=0;align=center;arcSize=4;whiteSpace=wrap;html=1;fillColor=default;swimlaneFillColor=none;strokeColor=#;" parent="1" vertex="1">
          <mxGeometry x="-33" y="234.5" width="129" height="134.5" as="geometry" />
        </mxCell>
        <mxCell id="GPNybGSvxElLRLeVUes3-9" value="&lt;font color=&quot;#000000&quot;&gt;+Name&lt;br&gt;+Stakeholder ID&lt;br&gt;+Phone&lt;br&gt;+Email&lt;br&gt;+Shareholding&lt;/font&gt;" style="align=left;strokeColor=default;fillColor=#faf7fd;spacingLeft=4;fontSize=12;verticalAlign=top;resizable=0;rotatable=0;part=1;html=1;" parent="GPNybGSvxElLRLeVUes3-8" vertex="1">
          <mxGeometry y="50" width="129" height="84.5" as="geometry" />
        </mxCell>
        <mxCell id="dXchG4zYQPLnqejBYTC1-52" style="edgeStyle=orthogonalEdgeStyle;rounded=0;orthogonalLoop=1;jettySize=auto;html=1;" edge="1" parent="1" source="GPNybGSvxElLRLeVUes3-18">
          <mxGeometry relative="1" as="geometry">
            <mxPoint x="232" y="83.5" as="targetPoint" />
          </mxGeometry>
        </mxCell>
        <mxCell id="GPNybGSvxElLRLeVUes3-18" value="COMPANY" style="swimlane;childLayout=stackLayout;horizontal=1;startSize=50;horizontalStack=0;rounded=1;fontSize=14;fontStyle=0;strokeWidth=2;resizeParent=0;resizeLast=1;shadow=0;dashed=0;align=center;arcSize=4;whiteSpace=wrap;html=1;" parent="1" vertex="1">
          <mxGeometry x="49" y="16" width="130" height="135" as="geometry" />
        </mxCell>
        <mxCell id="GPNybGSvxElLRLeVUes3-19" value="+Name&lt;br&gt;+Location&lt;br&gt;+Email&lt;br&gt;+Company Phone No.&lt;br&gt;+Company Values" style="align=left;strokeColor=none;fillColor=none;spacingLeft=4;fontSize=12;verticalAlign=top;resizable=0;rotatable=0;part=1;html=1;" parent="GPNybGSvxElLRLeVUes3-18" vertex="1">
          <mxGeometry y="50" width="130" height="85" as="geometry" />
        </mxCell>
        <mxCell id="dXchG4zYQPLnqejBYTC1-41" style="edgeStyle=orthogonalEdgeStyle;rounded=0;orthogonalLoop=1;jettySize=auto;html=1;entryX=0.102;entryY=0.33;entryDx=0;entryDy=0;entryPerimeter=0;" edge="1" parent="1" source="GPNybGSvxElLRLeVUes3-26" target="dXchG4zYQPLnqejBYTC1-40">
          <mxGeometry relative="1" as="geometry" />
        </mxCell>
        <mxCell id="GPNybGSvxElLRLeVUes3-26" value="PRODUCT" style="swimlane;childLayout=stackLayout;horizontal=1;startSize=50;horizontalStack=0;rounded=1;fontSize=14;fontStyle=0;strokeWidth=2;resizeParent=0;resizeLast=1;shadow=0;dashed=0;align=center;arcSize=4;whiteSpace=wrap;html=1;" parent="1" vertex="1">
          <mxGeometry x="395" y="16" width="125" height="129" as="geometry" />
        </mxCell>
        <mxCell id="GPNybGSvxElLRLeVUes3-27" value="+Name&lt;br&gt;+Product Line&lt;br&gt;+Price&lt;br&gt;+Manufacturing Date&amp;nbsp;&lt;br&gt;+Expiry Date" style="align=left;strokeColor=none;fillColor=none;spacingLeft=4;fontSize=12;verticalAlign=top;resizable=0;rotatable=0;part=1;html=1;" parent="GPNybGSvxElLRLeVUes3-26" vertex="1">
          <mxGeometry y="50" width="125" height="79" as="geometry" />
        </mxCell>
        <mxCell id="dXchG4zYQPLnqejBYTC1-27" value="CUSTOMER" style="swimlane;childLayout=stackLayout;horizontal=1;startSize=50;horizontalStack=0;rounded=1;fontSize=14;fontStyle=0;strokeWidth=2;resizeParent=0;resizeLast=1;shadow=0;dashed=0;align=center;arcSize=4;whiteSpace=wrap;html=1;" vertex="1" parent="1">
          <mxGeometry x="679" y="13.25" width="138" height="129.75" as="geometry" />
        </mxCell>
        <mxCell id="dXchG4zYQPLnqejBYTC1-28" value="+Name&lt;br&gt;+Customer Tag Number&lt;br&gt;+Email&lt;br&gt;+Mailing Address&lt;br&gt;+ Gender" style="align=left;strokeColor=none;fillColor=none;spacingLeft=4;fontSize=12;verticalAlign=top;resizable=0;rotatable=0;part=1;html=1;" vertex="1" parent="dXchG4zYQPLnqejBYTC1-27">
          <mxGeometry y="50" width="138" height="79.75" as="geometry" />
        </mxCell>
        <mxCell id="dXchG4zYQPLnqejBYTC1-39" style="edgeStyle=orthogonalEdgeStyle;rounded=0;orthogonalLoop=1;jettySize=auto;html=1;" edge="1" parent="1" source="dXchG4zYQPLnqejBYTC1-35">
          <mxGeometry relative="1" as="geometry">
            <mxPoint x="391" y="87.5" as="targetPoint" />
          </mxGeometry>
        </mxCell>
        <mxCell id="dXchG4zYQPLnqejBYTC1-35" value="Manufacturing" style="shape=rhombus;perimeter=rhombusPerimeter;whiteSpace=wrap;html=1;align=center;" vertex="1" parent="1">
          <mxGeometry x="236" y="59" width="111" height="57" as="geometry" />
        </mxCell>
        <mxCell id="dXchG4zYQPLnqejBYTC1-42" style="edgeStyle=orthogonalEdgeStyle;rounded=0;orthogonalLoop=1;jettySize=auto;html=1;entryX=0;entryY=0.25;entryDx=0;entryDy=0;" edge="1" parent="1" source="dXchG4zYQPLnqejBYTC1-40" target="dXchG4zYQPLnqejBYTC1-28">
          <mxGeometry relative="1" as="geometry" />
        </mxCell>
        <mxCell id="dXchG4zYQPLnqejBYTC1-40" value="Purchase" style="shape=rhombus;perimeter=rhombusPerimeter;whiteSpace=wrap;html=1;align=center;" vertex="1" parent="1">
          <mxGeometry x="551" y="62" width="98" height="57.5" as="geometry" />
        </mxCell>
        <mxCell id="dXchG4zYQPLnqejBYTC1-45" style="edgeStyle=orthogonalEdgeStyle;rounded=0;orthogonalLoop=1;jettySize=auto;html=1;" edge="1" parent="1" source="GPNybGSvxElLRLeVUes3-19">
          <mxGeometry relative="1" as="geometry">
            <mxPoint x="56" y="232" as="targetPoint" />
          </mxGeometry>
        </mxCell>
        <mxCell id="dXchG4zYQPLnqejBYTC1-54" value="" style="edgeStyle=orthogonalEdgeStyle;rounded=0;orthogonalLoop=1;jettySize=auto;html=1;" edge="1" parent="1" source="dXchG4zYQPLnqejBYTC1-53" target="GPNybGSvxElLRLeVUes3-2">
          <mxGeometry relative="1" as="geometry" />
        </mxCell>
        <mxCell id="dXchG4zYQPLnqejBYTC1-53" value="Profit" style="shape=rhombus;perimeter=rhombusPerimeter;whiteSpace=wrap;html=1;align=center;" vertex="1" parent="1">
          <mxGeometry x="144" y="267" width="90" height="51" as="geometry" />
        </mxCell>
        <mxCell id="dXchG4zYQPLnqejBYTC1-61" style="edgeStyle=orthogonalEdgeStyle;rounded=0;orthogonalLoop=1;jettySize=auto;html=1;" edge="1" parent="1" source="dXchG4zYQPLnqejBYTC1-59">
          <mxGeometry relative="1" as="geometry">
            <mxPoint x="668" y="294.5" as="targetPoint" />
          </mxGeometry>
        </mxCell>
        <mxCell id="dXchG4zYQPLnqejBYTC1-59" value="Employment" style="shape=rhombus;perimeter=rhombusPerimeter;whiteSpace=wrap;html=1;align=center;" vertex="1" parent="1">
          <mxGeometry x="515" y="264" width="98" height="61" as="geometry" />
        </mxCell>
        <mxCell id="dXchG4zYQPLnqejBYTC1-60" style="edgeStyle=orthogonalEdgeStyle;rounded=0;orthogonalLoop=1;jettySize=auto;html=1;" edge="1" parent="1" source="GPNybGSvxElLRLeVUes3-2" target="dXchG4zYQPLnqejBYTC1-59">
          <mxGeometry relative="1" as="geometry" />
        </mxCell>
        <mxCell id="dXchG4zYQPLnqejBYTC1-62" value="1" style="text;html=1;align=center;verticalAlign=middle;resizable=0;points=[];autosize=1;strokeColor=none;fillColor=none;" vertex="1" parent="1">
          <mxGeometry x="204" y="57" width="25" height="26" as="geometry" />
        </mxCell>
        <mxCell id="dXchG4zYQPLnqejBYTC1-63" value="M" style="text;html=1;align=center;verticalAlign=middle;resizable=0;points=[];autosize=1;strokeColor=none;fillColor=none;" vertex="1" parent="1">
          <mxGeometry x="353" y="63" width="28" height="26" as="geometry" />
        </mxCell>
        <mxCell id="dXchG4zYQPLnqejBYTC1-64" value="M" style="text;html=1;align=center;verticalAlign=middle;resizable=0;points=[];autosize=1;strokeColor=none;fillColor=none;" vertex="1" parent="1">
          <mxGeometry x="526" y="51" width="28" height="26" as="geometry" />
        </mxCell>
        <mxCell id="dXchG4zYQPLnqejBYTC1-65" value="M" style="text;html=1;align=center;verticalAlign=middle;resizable=0;points=[];autosize=1;strokeColor=none;fillColor=none;" vertex="1" parent="1">
          <mxGeometry x="638" y="64" width="28" height="26" as="geometry" />
        </mxCell>
        <mxCell id="dXchG4zYQPLnqejBYTC1-66" value="M" style="text;html=1;align=center;verticalAlign=middle;resizable=0;points=[];autosize=1;strokeColor=none;fillColor=none;" vertex="1" parent="1">
          <mxGeometry x="109" y="265" width="28" height="26" as="geometry" />
        </mxCell>
        <mxCell id="dXchG4zYQPLnqejBYTC1-67" value="M" style="text;html=1;align=center;verticalAlign=middle;resizable=0;points=[];autosize=1;strokeColor=none;fillColor=none;" vertex="1" parent="1">
          <mxGeometry x="225" y="262" width="28" height="26" as="geometry" />
        </mxCell>
        <mxCell id="dXchG4zYQPLnqejBYTC1-68" value="1" style="text;html=1;align=center;verticalAlign=middle;resizable=0;points=[];autosize=1;strokeColor=none;fillColor=none;" vertex="1" parent="1">
          <mxGeometry x="476" y="262" width="25" height="26" as="geometry" />
        </mxCell>
        <mxCell id="dXchG4zYQPLnqejBYTC1-70" value="M" style="text;html=1;align=center;verticalAlign=middle;resizable=0;points=[];autosize=1;strokeColor=none;fillColor=none;" vertex="1" parent="1">
          <mxGeometry x="612" y="257" width="28" height="26" as="geometry" />
        </mxCell>
        <mxCell id="dXchG4zYQPLnqejBYTC1-79" style="edgeStyle=orthogonalEdgeStyle;rounded=0;orthogonalLoop=1;jettySize=auto;html=1;" edge="1" parent="1" source="dXchG4zYQPLnqejBYTC1-73">
          <mxGeometry relative="1" as="geometry">
            <mxPoint x="701" y="254" as="targetPoint" />
          </mxGeometry>
        </mxCell>
        <mxCell id="dXchG4zYQPLnqejBYTC1-80" style="edgeStyle=orthogonalEdgeStyle;rounded=0;orthogonalLoop=1;jettySize=auto;html=1;" edge="1" parent="1" source="dXchG4zYQPLnqejBYTC1-73">
          <mxGeometry relative="1" as="geometry">
            <mxPoint x="394" y="256" as="targetPoint" />
          </mxGeometry>
        </mxCell>
        <mxCell id="dXchG4zYQPLnqejBYTC1-73" value="" style="line;strokeWidth=1;rotatable=0;dashed=0;labelPosition=right;align=left;verticalAlign=middle;spacingTop=0;spacingLeft=6;points=[];portConstraint=eastwest;" vertex="1" parent="1">
          <mxGeometry x="116" y="186" width="289" height="10" as="geometry" />
        </mxCell>
        <mxCell id="dXchG4zYQPLnqejBYTC1-78" style="edgeStyle=orthogonalEdgeStyle;rounded=0;orthogonalLoop=1;jettySize=auto;html=1;" edge="1" parent="1" source="dXchG4zYQPLnqejBYTC1-76">
          <mxGeometry relative="1" as="geometry">
            <mxPoint x="752.5" y="250" as="targetPoint" />
          </mxGeometry>
        </mxCell>
        <mxCell id="dXchG4zYQPLnqejBYTC1-76" value="Service" style="shape=rhombus;perimeter=rhombusPerimeter;whiteSpace=wrap;html=1;align=center;" vertex="1" parent="1">
          <mxGeometry x="712" y="165" width="81" height="46" as="geometry" />
        </mxCell>
        <mxCell id="dXchG4zYQPLnqejBYTC1-77" style="edgeStyle=orthogonalEdgeStyle;rounded=0;orthogonalLoop=1;jettySize=auto;html=1;" edge="1" parent="1" source="dXchG4zYQPLnqejBYTC1-28">
          <mxGeometry relative="1" as="geometry">
            <mxPoint x="748" y="163" as="targetPoint" />
          </mxGeometry>
        </mxCell>
      </root>
    </mxGraphModel>
  </diagram>
</mxfile>
